<mxfile host="app.diagrams.net" modified="2023-11-22T12:17:17.336Z" agent="Mozilla/5.0 (Windows NT 10.0; Win64; x64) AppleWebKit/537.36 (KHTML, like Gecko) Chrome/119.0.0.0 Safari/537.36" etag="8Hh7SO2oceJKTMJ_nH7U" version="22.1.3" type="github">
  <diagram name="‫עמוד-1‬" id="08D_mTUg6jLOTShBw8Z5">
    <mxGraphModel dx="1434" dy="746" grid="0" gridSize="10" guides="1" tooltips="1" connect="1" arrows="1" fold="1" page="1" pageScale="1" pageWidth="827" pageHeight="1169" math="0" shadow="0">
      <root>
        <mxCell id="0" />
        <mxCell id="1" parent="0" />
        <mxCell id="-qngtt7ib1RV9Wm__Yh7-1" value="start/end" style="rounded=1;whiteSpace=wrap;html=1;" vertex="1" parent="1">
          <mxGeometry x="40" y="40" width="140" height="80" as="geometry" />
        </mxCell>
        <mxCell id="-qngtt7ib1RV9Wm__Yh7-2" value="input" style="shape=card;whiteSpace=wrap;html=1;" vertex="1" parent="1">
          <mxGeometry x="234" y="40" width="140" height="80" as="geometry" />
        </mxCell>
        <mxCell id="-qngtt7ib1RV9Wm__Yh7-3" value="output" style="shape=document;whiteSpace=wrap;html=1;boundedLbl=1;" vertex="1" parent="1">
          <mxGeometry x="440" y="40" width="130" height="80" as="geometry" />
        </mxCell>
        <mxCell id="-qngtt7ib1RV9Wm__Yh7-4" value="while" style="ellipse;whiteSpace=wrap;html=1;aspect=fixed;" vertex="1" parent="1">
          <mxGeometry x="65" y="150" width="90" height="90" as="geometry" />
        </mxCell>
        <mxCell id="-qngtt7ib1RV9Wm__Yh7-5" value="foorloop&lt;br&gt;" style="shape=sumEllipse;perimeter=ellipsePerimeter;whiteSpace=wrap;html=1;backgroundOutline=1;" vertex="1" parent="1">
          <mxGeometry x="254" y="150" width="100" height="87.5" as="geometry" />
        </mxCell>
        <mxCell id="-qngtt7ib1RV9Wm__Yh7-6" value="if" style="rhombus;whiteSpace=wrap;html=1;" vertex="1" parent="1">
          <mxGeometry x="630" y="30" width="110" height="100" as="geometry" />
        </mxCell>
        <mxCell id="-qngtt7ib1RV9Wm__Yh7-11" value="" style="edgeStyle=orthogonalEdgeStyle;rounded=0;orthogonalLoop=1;jettySize=auto;html=1;" edge="1" parent="1" source="-qngtt7ib1RV9Wm__Yh7-8" target="-qngtt7ib1RV9Wm__Yh7-9">
          <mxGeometry relative="1" as="geometry" />
        </mxCell>
        <mxCell id="-qngtt7ib1RV9Wm__Yh7-8" value="start" style="rounded=1;whiteSpace=wrap;html=1;" vertex="1" parent="1">
          <mxGeometry x="60" y="370" width="120" height="60" as="geometry" />
        </mxCell>
        <mxCell id="-qngtt7ib1RV9Wm__Yh7-13" value="" style="edgeStyle=orthogonalEdgeStyle;rounded=0;orthogonalLoop=1;jettySize=auto;html=1;" edge="1" parent="1" source="-qngtt7ib1RV9Wm__Yh7-9" target="-qngtt7ib1RV9Wm__Yh7-12">
          <mxGeometry relative="1" as="geometry" />
        </mxCell>
        <mxCell id="-qngtt7ib1RV9Wm__Yh7-9" value="num1 = 2&lt;br&gt;num2 = -4" style="shape=card;whiteSpace=wrap;html=1;" vertex="1" parent="1">
          <mxGeometry x="55" y="470" width="130" height="80" as="geometry" />
        </mxCell>
        <mxCell id="-qngtt7ib1RV9Wm__Yh7-15" value="" style="edgeStyle=orthogonalEdgeStyle;rounded=0;orthogonalLoop=1;jettySize=auto;html=1;exitX=0.5;exitY=0.913;exitDx=0;exitDy=0;exitPerimeter=0;" edge="1" parent="1" source="-qngtt7ib1RV9Wm__Yh7-12" target="-qngtt7ib1RV9Wm__Yh7-14">
          <mxGeometry relative="1" as="geometry">
            <Array as="points" />
          </mxGeometry>
        </mxCell>
        <mxCell id="-qngtt7ib1RV9Wm__Yh7-12" value="num1 = |2|&lt;br&gt;num2 = |-4|" style="shape=document;whiteSpace=wrap;html=1;boundedLbl=1;" vertex="1" parent="1">
          <mxGeometry x="60" y="610" width="120" height="80" as="geometry" />
        </mxCell>
        <mxCell id="-qngtt7ib1RV9Wm__Yh7-17" value="" style="edgeStyle=orthogonalEdgeStyle;rounded=0;orthogonalLoop=1;jettySize=auto;html=1;" edge="1" parent="1" source="-qngtt7ib1RV9Wm__Yh7-14" target="-qngtt7ib1RV9Wm__Yh7-16">
          <mxGeometry relative="1" as="geometry" />
        </mxCell>
        <mxCell id="-qngtt7ib1RV9Wm__Yh7-14" value="ans = num 1 * num 2 = 2*4 = 8" style="rounded=1;whiteSpace=wrap;html=1;" vertex="1" parent="1">
          <mxGeometry x="60" y="760" width="120" height="60" as="geometry" />
        </mxCell>
        <mxCell id="-qngtt7ib1RV9Wm__Yh7-21" value="" style="edgeStyle=orthogonalEdgeStyle;rounded=0;orthogonalLoop=1;jettySize=auto;html=1;" edge="1" parent="1" source="-qngtt7ib1RV9Wm__Yh7-16" target="-qngtt7ib1RV9Wm__Yh7-20">
          <mxGeometry relative="1" as="geometry" />
        </mxCell>
        <mxCell id="-qngtt7ib1RV9Wm__Yh7-16" value="ans = ans%2 = 0" style="rounded=1;whiteSpace=wrap;html=1;" vertex="1" parent="1">
          <mxGeometry x="60" y="880" width="120" height="60" as="geometry" />
        </mxCell>
        <mxCell id="-qngtt7ib1RV9Wm__Yh7-23" value="" style="edgeStyle=orthogonalEdgeStyle;rounded=0;orthogonalLoop=1;jettySize=auto;html=1;" edge="1" parent="1" source="-qngtt7ib1RV9Wm__Yh7-20" target="-qngtt7ib1RV9Wm__Yh7-22">
          <mxGeometry relative="1" as="geometry" />
        </mxCell>
        <mxCell id="-qngtt7ib1RV9Wm__Yh7-27" value="" style="edgeStyle=orthogonalEdgeStyle;rounded=0;orthogonalLoop=1;jettySize=auto;html=1;" edge="1" parent="1" source="-qngtt7ib1RV9Wm__Yh7-20" target="-qngtt7ib1RV9Wm__Yh7-26">
          <mxGeometry relative="1" as="geometry" />
        </mxCell>
        <mxCell id="-qngtt7ib1RV9Wm__Yh7-20" value="ans = 0&amp;nbsp;" style="rhombus;whiteSpace=wrap;html=1;rounded=1;" vertex="1" parent="1">
          <mxGeometry x="80" y="1010" width="80" height="80" as="geometry" />
        </mxCell>
        <mxCell id="-qngtt7ib1RV9Wm__Yh7-22" value="even" style="shape=document;whiteSpace=wrap;html=1;boundedLbl=1;rounded=1;" vertex="1" parent="1">
          <mxGeometry x="60" y="1170" width="120" height="80" as="geometry" />
        </mxCell>
        <mxCell id="-qngtt7ib1RV9Wm__Yh7-29" value="" style="edgeStyle=orthogonalEdgeStyle;rounded=0;orthogonalLoop=1;jettySize=auto;html=1;" edge="1" parent="1" source="-qngtt7ib1RV9Wm__Yh7-26" target="-qngtt7ib1RV9Wm__Yh7-28">
          <mxGeometry relative="1" as="geometry" />
        </mxCell>
        <mxCell id="-qngtt7ib1RV9Wm__Yh7-26" value="num3" style="shape=card;whiteSpace=wrap;html=1;" vertex="1" parent="1">
          <mxGeometry x="270" y="1020" width="110" height="60" as="geometry" />
        </mxCell>
        <mxCell id="-qngtt7ib1RV9Wm__Yh7-28" value="num3 * 10" style="shape=document;whiteSpace=wrap;html=1;boundedLbl=1;" vertex="1" parent="1">
          <mxGeometry x="265" y="1150" width="120" height="80" as="geometry" />
        </mxCell>
        <mxCell id="-qngtt7ib1RV9Wm__Yh7-31" value="&lt;div&gt;var num1 = prompt(&quot;Enter first number&quot;);&lt;/div&gt;&lt;div&gt;var num2 = prompt(&quot;Enter second number&quot;);&lt;/div&gt;&lt;div&gt;if (num1 &amp;lt; 0) {num1*-1};&lt;/div&gt;&lt;div&gt;if (num2 &amp;lt; 0) {num2 *-1};console.log(num1 + num2)&lt;/div&gt;&lt;div&gt;&lt;br&gt;&lt;/div&gt;&lt;div&gt;var newNum = (num1*num2);&lt;/div&gt;&lt;div&gt;newNum = (nweNum%2) ;&lt;/div&gt;&lt;div style=&quot;&quot;&gt;if (newNum = 0) {console.log(even)} else {var num3 = prompt(&quot;Enter third number&quot;)&lt;/div&gt;" style="text;html=1;align=left;verticalAlign=middle;resizable=0;points=[];autosize=1;strokeColor=none;fillColor=none;" vertex="1" parent="1">
          <mxGeometry x="212" y="379" width="459" height="127" as="geometry" />
        </mxCell>
      </root>
    </mxGraphModel>
  </diagram>
</mxfile>
